<svg xmlns="http://www.w3.org/2000/svg" viewBox="0 0 900 675" width="900" height="675">
  <rect width="900" height="675" fill="#eeeeee"/>
  <g stroke="#e2e2e2" stroke-width="1"><line x1="0" y1="0" x2="0" y2="675"/><line x1="45" y1="0" x2="45" y2="675"/><line x1="90" y1="0" x2="90" y2="675"/><line x1="135" y1="0" x2="135" y2="675"/><line x1="180" y1="0" x2="180" y2="675"/><line x1="225" y1="0" x2="225" y2="675"/><line x1="270" y1="0" x2="270" y2="675"/><line x1="315" y1="0" x2="315" y2="675"/><line x1="360" y1="0" x2="360" y2="675"/><line x1="405" y1="0" x2="405" y2="675"/><line x1="450" y1="0" x2="450" y2="675"/><line x1="495" y1="0" x2="495" y2="675"/><line x1="540" y1="0" x2="540" y2="675"/><line x1="585" y1="0" x2="585" y2="675"/><line x1="630" y1="0" x2="630" y2="675"/><line x1="675" y1="0" x2="675" y2="675"/><line x1="720" y1="0" x2="720" y2="675"/><line x1="765" y1="0" x2="765" y2="675"/><line x1="810" y1="0" x2="810" y2="675"/><line x1="855" y1="0" x2="855" y2="675"/><line x1="900" y1="0" x2="900" y2="675"/><line x1="0" y1="0" x2="900" y2="0"/><line x1="0" y1="45" x2="900" y2="45"/><line x1="0" y1="90" x2="900" y2="90"/><line x1="0" y1="135" x2="900" y2="135"/><line x1="0" y1="180" x2="900" y2="180"/><line x1="0" y1="225" x2="900" y2="225"/><line x1="0" y1="270" x2="900" y2="270"/><line x1="0" y1="315" x2="900" y2="315"/><line x1="0" y1="360" x2="900" y2="360"/><line x1="0" y1="405" x2="900" y2="405"/><line x1="0" y1="450" x2="900" y2="450"/><line x1="0" y1="495" x2="900" y2="495"/><line x1="0" y1="540" x2="900" y2="540"/><line x1="0" y1="585" x2="900" y2="585"/><line x1="0" y1="630" x2="900" y2="630"/><line x1="0" y1="675" x2="900" y2="675"/></g>
  <circle cx="306.0" cy="243.0" r="46" fill="none" stroke="#c9c9c9" stroke-width="2"/>
  <path d="M0 675 L324.0 371.25000000000006 L558.0 540.0 L720.0 418.5 L900 675 Z"
        fill="#e2e2e2"/>
  <rect x=".5" y=".5" width="899" height="674" fill="none" stroke="#cfcfcf"/>
  <text x="450.0" y="649" text-anchor="middle" font-family="Helvetica Neue,Helvetica,Arial"
        font-size="14" fill="#a5a5a5" letter-spacing="2">PHOTO PLACEHOLDER</text>
</svg>
